<svg width="86" height="72" viewBox="0 0 86 72" fill="none" xmlns="http://www.w3.org/2000/svg">
<ellipse cx="43.4449" cy="35.8832" rx="42.5406" ry="35.1801" fill="white" fill-opacity="0.3"/>
<path d="M85.7355 35.8832C85.7355 55.1322 66.8479 70.8133 43.4449 70.8133C20.0419 70.8133 1.1543 55.1322 1.1543 35.8832C1.1543 16.6342 20.0419 0.953125 43.4449 0.953125C66.8479 0.953125 85.7355 16.6342 85.7355 35.8832Z" stroke="black" stroke-opacity="0.2" stroke-width="0.5"/>
<path d="M29.7423 39.1285L30.0143 38.9036V38.5506V31.1919C30.0143 24.9329 36.205 19.6289 44.1535 19.6289C52.1021 19.6289 58.2928 24.9329 58.2928 31.1919V38.5506V38.9036L58.5648 39.1285L60.3195 40.5796C60.7884 40.9674 60.8766 41.4795 60.6648 41.9022C60.4323 42.3664 59.8217 42.755 59.0428 42.755H29.2643C28.4854 42.755 27.8748 42.3664 27.6423 41.9022C27.4305 41.4795 27.5187 40.9674 27.9876 40.5796L29.7423 39.1285ZM44.1535 50.9636C40.656 50.9636 37.9722 48.8469 37.5247 46.3071H50.7823C50.3347 48.8469 47.6509 50.9636 44.1535 50.9636Z" stroke="black" stroke-width="1.5"/>
</svg>
