<svg width="86" height="72" viewBox="0 0 86 72" fill="none" xmlns="http://www.w3.org/2000/svg">
<ellipse cx="42.5582" cy="35.8832" rx="42.5406" ry="35.1801" fill="white" fill-opacity="0.3"/>
<path d="M84.8488 35.8832C84.8488 55.1322 65.9612 70.8133 42.5582 70.8133C19.1552 70.8133 0.267578 55.1322 0.267578 35.8832C0.267578 16.6342 19.1552 0.953125 42.5582 0.953125C65.9612 0.953125 84.8488 16.6342 84.8488 35.8832Z" stroke="black" stroke-opacity="0.2" stroke-width="0.5"/>
<path d="M52.0119 26.1108C52.0119 30.4284 47.7795 33.9286 42.5585 33.9286C37.3375 33.9286 33.105 30.4284 33.105 26.1108C33.105 21.7931 37.3375 18.293 42.5585 18.293C47.7795 18.293 52.0119 21.7931 52.0119 26.1108Z" stroke="#111827" stroke-width="2" stroke-linecap="round" stroke-linejoin="round"/>
<path d="M42.5585 39.7919C33.4217 39.7919 26.0149 45.9172 26.0149 53.473H59.102C59.102 45.9172 51.6952 39.7919 42.5585 39.7919Z" stroke="#111827" stroke-width="2" stroke-linecap="round" stroke-linejoin="round"/>
</svg>
